<?xml version="1.0" encoding="utf-8"?>
<!-- Generator: Adobe Illustrator 18.0.0, SVG Export Plug-In . SVG Version: 6.00 Build 0)  -->
<!DOCTYPE svg PUBLIC "-//W3C//DTD SVG 1.1//EN" "http://www.w3.org/Graphics/SVG/1.1/DTD/svg11.dtd">
<svg version="1.1" id="Layer_1" xmlns:sketch="http://www.bohemiancoding.com/sketch/ns"
	 xmlns="http://www.w3.org/2000/svg" xmlns:xlink="http://www.w3.org/1999/xlink" x="0px" y="0px" viewBox="25.5 24 440 440"
	 enable-background="new 25.5 24 440 440" xml:space="preserve">
<title>Right Graphic</title>
<desc>Created with Sketch.</desc>
<g id="Page-1" sketch:type="MSPage">
	<g id="Academia-11" transform="translate(-863.000000, -189.000000)" sketch:type="MSArtboardGroup">
		<g id="Right-Graphic-_x2B_-Hero-Text-and-Buttons" transform="translate(230.000000, 186.000000)" sketch:type="MSLayerGroup">
			<g id="Right-Graphic" transform="translate(632.000000, 0.000000)">
				<g opacity="0.5">
					<g id="Pluses" transform="translate(32.000000, 48.000000)" sketch:type="MSShapeGroup">
						<g id="Line-_x2B_-Line-Copy-6" transform="translate(320.000000, 8.000000)">
							<path id="Line" fill="none" stroke="#D1D1D1" stroke-width="1.6369" stroke-linecap="round" d="M-13.6,34.9v10.7"/>
							<path id="Line-Copy-6" fill="none" stroke="#D1D1D1" stroke-width="1.6369" stroke-linecap="round" d="M-18.9,40.2h10.6"/>
						</g>
						<g id="Line-_x2B_-Line-Copy-7" transform="translate(390.000000, 158.000000)">
							<path id="Line_1_" fill="none" stroke="#D1D1D1" stroke-width="1.6369" stroke-linecap="round" d="M-26.4,8v10.7"/>
							<path id="Line-Copy-6_1_" fill="none" stroke="#D1D1D1" stroke-width="1.6369" stroke-linecap="round" d="M-31.7,13.3h10.6"
								/>
						</g>
						<g id="Line-_x2B_-Line-Copy-8" transform="translate(47.000000, 98.000000)">
							<path id="Line_2_" fill="none" stroke="#D1D1D1" stroke-width="1.6369" stroke-linecap="round" d="M36.5,18.7v10.7"/>
							<path id="Line-Copy-6_2_" fill="none" stroke="#D1D1D1" stroke-width="1.6369" stroke-linecap="round" d="M31.2,24.1h10.6"/>
						</g>
						<g id="Line-_x2B_-Line-Copy-10" transform="translate(390.000000, 248.000000)">
							<path id="Line_3_" fill="none" stroke="#D1D1D1" stroke-width="1.6369" stroke-linecap="round" d="M-26.4-8.2V2.5"/>
							<path id="Line-Copy-6_3_" fill="none" stroke="#D1D1D1" stroke-width="1.6369" stroke-linecap="round" d="M-31.7-2.9h10.6"/>
						</g>
						<g id="Line-_x2B_-Line-Copy-11" transform="translate(348.000000, 357.000000)">
							<path id="Line_4_" fill="none" stroke="#D1D1D1" stroke-width="1.6369" stroke-linecap="round" d="M-18.7-27.8v10.7"/>
							<path id="Line-Copy-6_4_" fill="none" stroke="#D1D1D1" stroke-width="1.6369" stroke-linecap="round" d="M-24-22.5h10.6"/>
						</g>
						<g id="Line-_x2B_-Line-Copy-15" transform="translate(228.000000, 377.000000)">
							<path id="Line_5_" fill="none" stroke="#D1D1D1" stroke-width="1.6369" stroke-linecap="round" d="M3.3-31.4v10.7"/>
							<path id="Line-Copy-6_5_" fill="none" stroke="#D1D1D1" stroke-width="1.6369" stroke-linecap="round" d="M-2-26H8.6"/>
						</g>
						<g id="Line-_x2B_-Line-Copy-12" transform="translate(130.000000, 370.000000)">
							<path id="Line_6_" fill="none" stroke="#D1D1D1" stroke-width="1.6369" stroke-linecap="round" d="M21.3-30.1v10.7"/>
							<path id="Line-Copy-6_6_" fill="none" stroke="#D1D1D1" stroke-width="1.6369" stroke-linecap="round" d="M16-24.8h10.6"/>
						</g>
						<g id="Line-_x2B_-Line-Copy-16" transform="translate(60.000000, 230.000000)">
							<path id="Line_7_" fill="none" stroke="#D1D1D1" stroke-width="1.6369" stroke-linecap="round" d="M34.1-5V5.7"/>
							<path id="Line-Copy-6_7_" fill="none" stroke="#D1D1D1" stroke-width="1.6369" stroke-linecap="round" d="M28.8,0.4h10.6"/>
						</g>
						<g id="Line-_x2B_-Line-Copy-17" transform="translate(0.000000, 300.000000)">
							<path id="Line_8_" fill="none" stroke="#D1D1D1" stroke-width="1.6369" stroke-linecap="round" d="M45.1-17.5v10.7"/>
							<path id="Line-Copy-6_8_" fill="none" stroke="#D1D1D1" stroke-width="1.6369" stroke-linecap="round" d="M39.8-12.2h10.6"/>
						</g>
						<g id="Line-_x2B_-Line-Copy-13" transform="translate(79.000000, 0.000000)">
							<path id="Line_9_" fill="none" stroke="#D1D1D1" stroke-width="1.6369" stroke-linecap="round" d="M30.7,36.3V47"/>
							<path id="Line-Copy-6_9_" fill="none" stroke="#D1D1D1" stroke-width="1.6369" stroke-linecap="round" d="M25.3,41.7H36"/>
						</g>
						<g id="Line-_x2B_-Line-Copy-14" transform="translate(170.000000, 22.000000)">
							<path id="Line_10_" fill="none" stroke="#D1D1D1" stroke-width="1.6369" stroke-linecap="round" d="M14,32.4v10.7"/>
							<path id="Line-Copy-6_10_" fill="none" stroke="#D1D1D1" stroke-width="1.6369" stroke-linecap="round" d="M8.6,37.7h10.6"/>
						</g>
					</g>
					<g id="Pie-Charts" transform="translate(59.000000, 73.000000)" sketch:type="MSShapeGroup">
						<g id="Imported-Layers" transform="translate(335.000000, 0.000000)">
							<path id="Fill-1" fill="none" stroke="#D1D1D1" stroke-width="1.3397" d="M-12,37.4c-8.3,0-15,6.8-15,15.1s6.7,15.1,15,15.1
								S3,60.8,3,52.5h-15V37.4z M-6.1,31.4v15.1h15C8.9,38.2,2.2,31.4-6.1,31.4z"/>
						</g>
						<g id="Imported-Layers-Copy" transform="translate(0.000000, 2.000000)">
							<path id="Fill-1_1_" fill="none" stroke="#D1D1D1" stroke-width="1.3397" d="M44.7,35.1c-5.7,0-10.2,4.6-10.2,10.3
								s4.6,10.3,10.2,10.3s10.2-4.6,10.2-10.3H44.7V35.1z M48.7,31.1v10.3H59C59,35.7,54.4,31.1,48.7,31.1z"/>
						</g>
						<g id="Imported-Layers-Copy-2" transform="translate(257.000000, 352.000000)">
							<path id="Fill-1_2_" fill="none" stroke="#D1D1D1" stroke-width="1.3397" d="M0.6-26.5c-7.3,0-13.3,6-13.3,13.4
								s6,13.4,13.3,13.4s13.3-6,13.3-13.4H0.6V-26.5z M5.9-31.8v13.4h13.3C19.2-25.8,13.2-31.8,5.9-31.8z"/>
						</g>
					</g>
					<g id="More-Bubbles" transform="translate(58.000000, 6.000000)" sketch:type="MSShapeGroup">
						<path id="Fill-1-Copy-6" fill="#FFFFFF" stroke="#D1D1D1" stroke-width="1.6369" d="M283.4,61.9c-1.7,0-3.4-0.4-4.9-1.1
							c-0.9,0.7-2.2,0.8-3.2,0.8c-0.9,0-1.5-0.1-1.5-0.1c-0.1,0-0.2-0.1-0.2-0.2c0-0.1,0-0.2,0.1-0.3c1-0.5,1.3-1.7,1.4-2.6
							c-1.5-1.6-2.3-3.6-2.3-5.7c0-5.1,4.7-9.2,10.6-9.2c5.8,0,10.6,4.1,10.6,9.2C293.9,57.7,289.2,61.9,283.4,61.9"/>
						<path id="Fill-1-Copy-9" fill="#FFFFFF" stroke="#D1D1D1" stroke-width="1.6369" d="M366.4,251.3c-1.9,0-3.9-0.4-5.6-1.2
							c-1,0.7-2.5,0.9-3.6,0.9c-1,0-1.7-0.1-1.7-0.1c-0.1,0-0.2-0.1-0.3-0.3c0-0.1,0-0.3,0.2-0.3c1.1-0.6,1.5-1.9,1.6-2.9
							c-1.7-1.8-2.6-4.1-2.6-6.5c0-5.7,5.4-10.4,12-10.4c6.6,0,12,4.7,12,10.4C378.4,246.6,373,251.3,366.4,251.3"/>
						<path id="Fill-1-Copy-7" fill="#FFFFFF" stroke="#D1D1D1" stroke-width="1.6369" d="M52.7,312.1c1,0.7,2.5,0.9,3.5,0.9
							c1,0,1.7-0.1,1.7-0.1c0.1,0,0.2-0.1,0.3-0.3c0-0.1,0-0.3-0.2-0.3c-1.1-0.6-1.4-1.9-1.6-2.9c1.6-1.8,2.5-4,2.5-6.3
							c0-5.6-5.3-10.2-11.7-10.2c-6.5,0-11.7,4.6-11.7,10.2c0,5.6,5.3,10.2,11.7,10.2C49.1,313.3,51,312.9,52.7,312.1z"/>
						<path id="Fill-1-Copy-8" fill="#FFFFFF" stroke="#D1D1D1" stroke-width="1.6369" d="M43.1,72c1.4,0,2.7-0.3,3.9-0.8
							c0.7,0.5,1.8,0.6,2.5,0.6c0.7,0,1.2-0.1,1.2-0.1c0.1,0,0.2-0.1,0.2-0.2c0-0.1,0-0.2-0.1-0.2c-0.8-0.4-1-1.3-1.1-2.1
							c1.2-1.3,1.8-2.9,1.8-4.6c0-4-3.8-7.3-8.4-7.3c-4.7,0-8.4,3.3-8.4,7.3C34.7,68.8,38.4,72,43.1,72"/>
						<path id="Fill-1-Copy-11" fill="#FFFFFF" stroke="#D1D1D1" stroke-width="1.6369" d="M108.4,424.8c1.4,0,2.7-0.3,3.9-0.8
							c0.7,0.5,1.8,0.6,2.5,0.6c0.7,0,1.2-0.1,1.2-0.1c0.1,0,0.2-0.1,0.2-0.2c0-0.1,0-0.2-0.1-0.2c-0.8-0.4-1-1.3-1.1-2.1
							c1.2-1.3,1.8-2.9,1.8-4.6c0-4-3.8-7.3-8.4-7.3c-4.7,0-8.4,3.3-8.4,7.3C100,421.5,103.8,424.8,108.4,424.8"/>
					</g>
					<g id="Paper-Clips" transform="translate(16.000000, 0.000000)" sketch:type="MSShapeGroup" opacity="0.3956">
						<path id="Imported-Layers_1_" fill="#D1D1D1" d="M237.8,65.6c-1.3,1-3.5,0.6-4.5-0.8l-8.2-11c-1.4-1.9-1-4.5,0.8-5.9
							c1.9-1.4,4.5-1,5.9,0.8l7.6,10.1c0.3,0.4,0.2,0.9-0.2,1.1c-0.4,0.3-0.9,0.2-1.1-0.2l-7.6-10.1c-0.9-1.1-2.5-1.4-3.6-0.5
							c-1.1,0.9-1.4,2.5-0.5,3.6l8.2,11c0.5,0.7,1.8,0.8,2.2,0.5c0.9-0.6,0.9-1.6,0.4-2.3l-6.9-8.9c-0.2-0.2-0.5-0.3-0.7-0.1
							c-0.2,0.2-0.2,0.5-0.1,0.7l6.1,8.2c0.3,0.4,0.2,0.9-0.2,1.1c-0.4,0.3-0.9,0.2-1.1-0.2l-6.1-8.2c-0.7-0.9-0.5-2.3,0.4-3
							c0.9-0.7,2.2-0.5,2.9,0.4l6.9,9C239.5,62.3,239.5,64.3,237.8,65.6"/>
						<path id="Imported-Layers-Copy-4" fill="#D1D1D1" d="M195.5,410.1c1.3,1,3.5,0.6,4.5-0.8l8.2-11c1.4-1.9,1-4.5-0.8-5.9
							c-1.9-1.4-4.5-1-5.9,0.8l-7.6,10.1c-0.3,0.4-0.2,0.9,0.2,1.1c0.4,0.3,0.9,0.2,1.1-0.2l7.6-10.1c0.9-1.1,2.5-1.4,3.6-0.5
							c1.1,0.9,1.4,2.5,0.5,3.6l-8.2,11c-0.5,0.7-1.8,0.8-2.2,0.5c-0.9-0.6-0.9-1.6-0.4-2.3l6.9-8.9c0.2-0.2,0.5-0.3,0.7-0.1
							s0.2,0.5,0.1,0.7l-6.1,8.2c-0.3,0.4-0.2,0.9,0.2,1.1c0.4,0.3,0.9,0.2,1.1-0.2l6.1-8.2c0.7-0.9,0.5-2.3-0.4-3
							c-0.9-0.7-2.2-0.5-2.9,0.4l-6.9,9C193.9,406.9,193.9,408.9,195.5,410.1"/>
						<path id="Imported-Layers-Copy-6" fill="#D1D1D1" d="M342.5,262.5c1.3,1,3.5,0.6,4.5-0.8l8.2-11c1.4-1.9,1-4.5-0.8-5.9
							c-1.9-1.4-4.5-1-5.9,0.8l-7.6,10.1c-0.3,0.4-0.2,0.9,0.2,1.1c0.4,0.3,0.9,0.2,1.1-0.2l7.6-10.1c0.9-1.1,2.5-1.4,3.6-0.5
							c1.1,0.9,1.4,2.5,0.5,3.6l-8.2,11c-0.5,0.7-1.8,0.8-2.2,0.5c-0.9-0.6-0.9-1.6-0.4-2.3l6.9-8.9c0.2-0.2,0.5-0.3,0.7-0.1
							s0.2,0.5,0.1,0.7l-6.1,8.2c-0.3,0.4-0.2,0.9,0.2,1.1c0.4,0.3,0.9,0.2,1.1-0.2l6.1-8.2c0.7-0.9,0.5-2.3-0.4-3
							c-0.9-0.7-2.2-0.5-2.9,0.4l-6.9,9C340.9,259.2,340.9,261.2,342.5,262.5"/>
						<path id="Imported-Layers-Copy-7" fill="#D1D1D1" d="M58.2,213.2c-1.3,1-3.5,0.6-4.5-0.8l-8.2-11c-1.4-1.9-1-4.5,0.8-5.9
							c1.9-1.4,4.5-1,5.9,0.8l7.6,10.1c0.3,0.4,0.2,0.9-0.2,1.1c-0.4,0.3-0.9,0.2-1.1-0.2l-7.6-10.1c-0.9-1.1-2.5-1.4-3.6-0.5
							s-1.4,2.5-0.5,3.6l8.2,11c0.5,0.7,1.8,0.8,2.2,0.5c0.9-0.6,0.9-1.6,0.4-2.3l-6.9-8.9c-0.2-0.2-0.5-0.3-0.7-0.1
							c-0.2,0.2-0.2,0.5-0.1,0.7l6.1,8.2c0.3,0.4,0.2,0.9-0.2,1.1c-0.4,0.3-0.9,0.2-1.1-0.2l-6.1-8.2c-0.7-0.9-0.5-2.3,0.4-3
							c0.9-0.7,2.2-0.5,2.9,0.4l6.9,9C59.9,210,59.9,212,58.2,213.2"/>
					</g>
					<g id="Papers" transform="translate(0.000000, 247.000000)" sketch:type="MSShapeGroup" opacity="0.3956">
						<path id="Imported-Layers_2_" fill="#D1D1D1" d="M445.6,49l-12.7-6.8c-0.8-0.4-1.8-0.1-2.2,0.7l-8.8,16.6
							c-0.4,0.8-0.1,1.8,0.7,2.2l12.7,6.8c0.8,0.4,1.8,0.1,2.2-0.7l8.8-16.6C446.7,50.4,446.4,49.4,445.6,49L445.6,49z M432.1,43.6
							l12.7,6.8l-8.8,16.6l-12.7-6.8L432.1,43.6z M431.8,47.7c0.2-0.4,0.7-0.6,1.1-0.3l3.3,1.8c0.4,0.2,0.5,0.7,0.3,1.1
							c-0.2,0.4-0.7,0.6-1.1,0.3l-3.3-1.8C431.8,48.6,431.6,48.1,431.8,47.7L431.8,47.7z M430,51.2c0.2-0.4,0.7-0.6,1.1-0.3l8,4.3
							c0.4,0.2,0.5,0.7,0.3,1.1c-0.2,0.4-0.7,0.6-1.1,0.3l-8-4.3C429.9,52,429.8,51.6,430,51.2L430,51.2z M428.2,54.5
							c0.2-0.4,0.7-0.6,1.1-0.3l8,4.3c0.4,0.2,0.5,0.7,0.3,1.1c-0.2,0.4-0.7,0.6-1.1,0.3l-8-4.3C428.2,55.4,428,54.9,428.2,54.5
							L428.2,54.5z M426.5,57.8c0.2-0.4,0.7-0.6,1.1-0.3l8,4.3c0.4,0.2,0.5,0.7,0.3,1.1c-0.2,0.4-0.7,0.6-1.1,0.3l-8-4.3
							C426.4,58.7,426.3,58.2,426.5,57.8L426.5,57.8z"/>
						<path id="Imported-Layers-Copy-8" fill="#D1D1D1" d="M61.1,1.9l-13.6,5c-0.8,0.3-1.3,1.3-1,2.1L53,26.6c0.3,0.9,1.2,1.3,2.1,1
							l13.6-5c0.8-0.3,1.3-1.3,1-2.1L63.2,2.9C62.9,2,62,1.6,61.1,1.9L61.1,1.9z M48.1,8.4l13.6-5l6.4,17.7l-13.6,5L48.1,8.4z
							 M50.9,11.3c-0.2-0.4,0.1-0.9,0.5-1.1L54.9,9c0.4-0.2,0.9,0.1,1,0.5c0.2,0.4-0.1,0.9-0.5,1.1L52,11.8
							C51.5,11.9,51.1,11.7,50.9,11.3L50.9,11.3z M52.3,15c-0.2-0.4,0.1-0.9,0.5-1.1l8.5-3.1c0.4-0.2,0.9,0.1,1,0.5
							c0.2,0.4-0.1,0.9-0.5,1.1l-8.5,3.1C52.9,15.7,52.4,15.4,52.3,15L52.3,15z M53.5,18.5c-0.2-0.4,0.1-0.9,0.5-1.1l8.5-3.1
							c0.4-0.2,0.9,0.1,1,0.5c0.2,0.4-0.1,0.9-0.5,1.1L54.6,19C54.2,19.2,53.7,19,53.5,18.5L53.5,18.5z M54.8,22
							c-0.2-0.4,0.1-0.9,0.5-1.1l8.5-3.1c0.4-0.2,0.9,0.1,1,0.5c0.2,0.4-0.1,0.9-0.5,1.1l-8.5,3.1C55.4,22.7,55,22.5,54.8,22
							L54.8,22z"/>
						<path id="Imported-Layers-Copy-9" fill="#D1D1D1" d="M248.9,174.1l-13.6,5c-0.8,0.3-1.3,1.3-1,2.1l6.4,17.7
							c0.3,0.9,1.2,1.3,2.1,1l13.6-5c0.8-0.3,1.3-1.3,1-2.1l-6.4-17.7C250.7,174.3,249.8,173.8,248.9,174.1L248.9,174.1z
							 M235.9,180.6l13.6-5l6.4,17.7l-13.6,5L235.9,180.6z M238.7,183.6c-0.2-0.4,0.1-0.9,0.5-1.1l3.5-1.3c0.4-0.2,0.9,0.1,1,0.5
							c0.2,0.4-0.1,0.9-0.5,1.1l-3.5,1.3C239.3,184.2,238.9,184,238.7,183.6L238.7,183.6z M240.1,187.3c-0.2-0.4,0.1-0.9,0.5-1.1
							l8.5-3.1c0.4-0.2,0.9,0.1,1,0.5s-0.1,0.9-0.5,1.1l-8.5,3.1C240.7,187.9,240.2,187.7,240.1,187.3L240.1,187.3z M241.3,190.8
							c-0.2-0.4,0.1-0.9,0.5-1.1l8.5-3.1c0.4-0.2,0.9,0.1,1,0.5c0.2,0.4-0.1,0.9-0.5,1.1l-8.5,3.1
							C242,191.4,241.5,191.2,241.3,190.8L241.3,190.8z M242.6,194.3c-0.2-0.4,0.1-0.9,0.5-1.1l8.5-3.1c0.4-0.2,0.9,0.1,1,0.5
							c0.2,0.4-0.1,0.9-0.5,1.1l-8.5,3.1C243.2,195,242.8,194.7,242.6,194.3L242.6,194.3z"/>
					</g>
					<g id="Bar-chats" transform="translate(47.000000, 20.000000)" sketch:type="MSShapeGroup" opacity="0.4">
						<path id="Fill-1_3_" fill="#FFFFFF" stroke="#D1D1D1" stroke-width="1.3397" d="M148.6,41h7.3v23h-7.3V41z M138.4,47.3h7.3
							v16.7h-7.3V47.3z M128.3,55h7.3v9h-7.3V55z"/>
						<path id="Fill-1-Copy-4" fill="#FFFFFF" stroke="#D1D1D1" stroke-width="1.3397" d="M363,328.1h6V347h-6V328.1z M354.6,333.3
							h6V347h-6V333.3z M346.3,339.6h6v7.4h-6V339.6z"/>
						<path id="Fill-1-Copy-10" fill="#FFFFFF" stroke="#D1D1D1" stroke-width="1.3397" d="M371.1,139.4h6v18.9h-6V139.4z
							 M362.8,144.6h6v13.7h-6V144.6z M354.5,150.9h6v7.4h-6V150.9z"/>
						<path id="Fill-1-Copy-5" fill="#FFFFFF" stroke="#D1D1D1" stroke-width="1.3397" d="M56.4,341.2h7.1v22.1h-7.1V341.2z
							 M46.6,347.3h7.1v16.1h-7.1V347.3z M36.8,354.7h7.1v8.7h-7.1V354.7z"/>
					</g>
					<g id="Pens" transform="translate(21.000000, 26.000000)" sketch:type="MSShapeGroup">
						<path id="Imported-Layers_3_" fill="#D1D1D1" d="M260.3,71.6l5-8.7c0.2-0.4,0.7-0.5,1.1-0.3c0.4,0.2,0.5,0.7,0.3,1.1l-5,8.7
							c-0.2,0.4-0.7,0.5-1.1,0.3C260.2,72.5,260.1,72,260.3,71.6L260.3,71.6z M266.9,61.7c0.4,0.2,0.9,0.1,1.1-0.3l1.4-2.4
							c0.2-0.4,0.1-0.9-0.3-1.1c-0.4-0.2-0.9-0.1-1.1,0.3l-1.4,2.4C266.4,61,266.5,61.5,266.9,61.7L266.9,61.7z M277.9,54.8
							l-4.6,7.9c-0.2,0.4-0.7,0.5-1.1,0.3c-0.4-0.2-0.5-0.7-0.3-1.1l4.4-7.6l-0.4-1l-13.5,23.5c0,0,0,0,0,0c0,0.1-0.1,0.1-0.2,0.2
							c0,0,0,0-0.1,0c0,0,0,0,0,0l-6.9,4.2c-0.3,0.2-0.6,0.2-0.8,0c-0.3-0.2-0.4-0.4-0.4-0.7l0.2-8.1c0,0,0,0,0-0.1c0,0,0,0,0-0.1
							c0-0.1,0-0.2,0.1-0.3c0,0,0,0,0,0l15.7-27.3c0.2-0.4,0.7-0.5,1.1-0.3l0.1,0.1l1.6-2.8c0.2-0.4,0.7-0.5,1.1-0.3l5.1,2.9
							c0.4,0.2,0.5,0.7,0.3,1.1l-1.6,2.8l0.1,0.1c0.4,0.2,0.5,0.7,0.3,1.1l-1.1,2l1.1,2.6C278.1,54.3,278,54.6,277.9,54.8
							L277.9,54.8z M256.1,72.2l5.3,3.1l13.5-23.5l-5.3-3.1L256.1,72.2z M270.4,47.2l5.3,3.1l0.5-0.9l-5.3-3.1L270.4,47.2z
							 M272.6,45.4l3.7,2.1l1.2-2l-3.7-2.1L272.6,45.4z M260.1,76.4l-4.3-2.5l-0.1,5.2L260.1,76.4L260.1,76.4z"/>
						<path id="Imported-Layers_4_" fill="#D1D1D1" d="M56.6,125.3l5.1,5.1c0.3,0.3,0.3,0.8,0,1.2c-0.3,0.3-0.8,0.3-1.2,0l-5.1-5.1
							c-0.3-0.3-0.3-0.8,0-1.2C55.8,125,56.3,125,56.6,125.3L56.6,125.3z M52.1,122c-0.3,0.3-0.3,0.8,0,1.2l1.4,1.4
							c0.3,0.3,0.8,0.3,1.2,0c0.3-0.3,0.3-0.8,0-1.2l-1.4-1.4C53,121.6,52.5,121.6,52.1,122L52.1,122z M53.7,114.7l4.6,4.7
							c0.3,0.3,0.3,0.8,0,1.2c-0.3,0.3-0.8,0.3-1.2,0l-4.4-4.4l-1.2,0.2l13.9,13.9c0,0,0,0,0,0c0.1,0.1,0.1,0.1,0.1,0.2
							c0,0,0,0,0,0.1c0,0,0,0,0,0l1.6,5.6c0.1,0.3,0,0.6-0.2,0.8s-0.5,0.3-0.8,0.2l-5.6-1.6c0,0,0,0,0,0c0,0,0,0-0.1,0
							c-0.1,0-0.2-0.1-0.2-0.1c0,0,0,0,0,0l-15.9-16c-0.3-0.3-0.3-0.7-0.1-1l-1.5-1.5c-0.3-0.3-0.3-0.8,0-1.2l3-3
							c0.3-0.3,0.8-0.3,1.2,0l1.5,1.5c0.3-0.2,0.8-0.2,1,0.1l0.8,0.8c0.1-0.1,0.3-0.2,0.5-0.2l2.3-0.3
							C53.2,114.4,53.5,114.5,53.7,114.7L53.7,114.7z M47,119.6l2.8-2.8l-0.9-0.9l-2.8,2.8L47,119.6z M60.9,133.6l2.8-2.8L51,118
							l-2.8,2.8L60.9,133.6z M45.4,117.1l1.8-1.8l-0.9-0.9l-1.8,1.8L45.4,117.1z M64.4,132.3l-2,2l2.8,0.8L64.4,132.3L64.4,132.3z"
							/>
						<path id="Imported-Layers-Copy-3" fill="#D1D1D1" d="M357.8,382.1l-5.1,5.1c-0.3,0.3-0.3,0.8,0,1.2c0.3,0.3,0.8,0.3,1.2,0
							l5.1-5.1c0.3-0.3,0.3-0.8,0-1.2C358.6,381.7,358.1,381.7,357.8,382.1L357.8,382.1z M362.3,378.7c0.3,0.3,0.3,0.8,0,1.2
							l-1.4,1.4c-0.3,0.3-0.8,0.3-1.2,0c-0.3-0.3-0.3-0.8,0-1.2l1.4-1.4C361.4,378.4,362,378.4,362.3,378.7L362.3,378.7z
							 M360.7,371.4l-4.6,4.7c-0.3,0.3-0.3,0.8,0,1.2c0.3,0.3,0.8,0.3,1.2,0l4.4-4.4l1.2,0.2L349,387c0,0,0,0,0,0
							c-0.1,0.1-0.1,0.1-0.1,0.2c0,0,0,0,0,0.1c0,0,0,0,0,0l-1.6,5.6c-0.1,0.3,0,0.6,0.2,0.8s0.5,0.3,0.8,0.2l5.6-1.6c0,0,0,0,0,0
							c0,0,0,0,0.1,0c0.1,0,0.2-0.1,0.2-0.1c0,0,0,0,0,0l15.9-16c0.3-0.3,0.3-0.7,0.1-1l1.5-1.5c0.3-0.3,0.3-0.8,0-1.2l-3-3
							c-0.3-0.3-0.8-0.3-1.2,0l-1.5,1.5c-0.3-0.2-0.8-0.2-1,0.1l-0.8,0.8c-0.1-0.1-0.3-0.2-0.5-0.2l-2.3-0.3
							C361.2,371.2,360.9,371.3,360.7,371.4L360.7,371.4z M367.4,376.4l-2.8-2.8l0.9-0.9l2.8,2.8L367.4,376.4z M353.5,390.3
							l-2.8-2.8l12.7-12.8l2.8,2.8L353.5,390.3z M369,373.8l-1.8-1.8l0.9-0.9l1.8,1.8L369,373.8z M350,389.1l2,2l-2.8,0.8L350,389.1
							L350,389.1z"/>
						<path id="Imported-Layers-Copy-5" fill="#D1D1D1" d="M111.4,380.9l6.1-3.8c0.4-0.2,0.5-0.7,0.3-1.1c-0.2-0.4-0.7-0.5-1.1-0.3
							l-6.1,3.8c-0.4,0.2-0.5,0.7-0.3,1.1C110.5,381,111,381.2,111.4,380.9L111.4,380.9z M106.3,383.1c-0.2-0.4-0.1-0.9,0.3-1.1
							l1.7-1c0.4-0.2,0.9-0.1,1.1,0.3s0.1,0.9-0.3,1.1l-1.7,1C107.1,383.6,106.6,383.5,106.3,383.1L106.3,383.1z M106.2,390.6
							l5.6-3.5c0.4-0.2,0.5-0.7,0.3-1.1c-0.2-0.4-0.7-0.5-1.1-0.3l-5.2,3.3l-1.2-0.4l16.6-10.4c0,0,0,0,0,0c0.1,0,0.1-0.1,0.2-0.2
							c0,0,0,0,0-0.1c0,0,0,0,0,0l2.9-5.1c0.1-0.3,0.1-0.6,0-0.8c-0.2-0.3-0.4-0.4-0.7-0.4l-5.8,0.3c0,0,0,0-0.1,0c0,0,0,0-0.1,0
							c-0.1,0-0.2,0-0.2,0.1c0,0,0,0,0,0l-19.1,12c-0.3,0.2-0.5,0.6-0.3,1l-1.8,1.1c-0.4,0.2-0.5,0.7-0.3,1.1l2.2,3.6
							c0.2,0.4,0.7,0.5,1.1,0.3l1.8-1.1c0.3,0.3,0.7,0.4,1,0.2l0.9-0.6c0.1,0.1,0.2,0.3,0.4,0.3l2.1,0.8
							C105.7,390.8,106,390.7,106.2,390.6L106.2,390.6z M100.8,384.3l2.1,3.3l-1.1,0.7l-2.1-3.3L100.8,384.3z M117.5,373.8l2.1,3.3
							l-15.2,9.6l-2.1-3.3L117.5,373.8z M98.7,386.4l1.4,2.2l-1,0.7l-1.4-2.2L98.7,386.4z M120.6,375.8l-1.5-2.4l2.9-0.2
							L120.6,375.8L120.6,375.8z"/>
					</g>
				</g>
				<g id="Main-Paper" transform="translate(69.000000, 103.000000)">
					<path id="Fill-1-Copy" sketch:type="MSShapeGroup" fill="#EFEFEF" d="M90,258.4l-11.5-221c0-0.5,0.4-0.9,0.8-0.9l169.4-8.9
						c0.5,0,0.9,0.4,0.9,0.9l11.5,221c0,0.5-0.4,0.9-0.8,0.9l-169.4,8.9C90.4,259.3,90,258.9,90,258.4z"/>
					<path id="Fill-2-Copy" sketch:type="MSShapeGroup" fill="#808080" d="M79.2,37.2l169.6-8.9l11.5,221.2l-169.6,8.9L79.2,37.2z
						 M248.6,26.7L79.3,35.6c-1,0.1-1.8,0.9-1.7,1.9l11.5,220.9c0.1,1,0.9,1.8,1.9,1.7l169.3-8.9c1-0.1,1.7-0.9,1.7-1.9L250.5,28.4
						C250.4,27.4,249.6,26.6,248.6,26.7L248.6,26.7z"/>
					<path id="Fill-1_4_" sketch:type="MSShapeGroup" fill="#FFFFFF" d="M84.1,254V32.7c0-0.5,0.4-0.9,0.9-0.9h169.7
						c0.5,0,0.9,0.4,0.9,0.9V254c0,0.5-0.4,0.9-0.9,0.9H85C84.5,254.9,84.1,254.5,84.1,254z"/>
					<path id="Fill-2" sketch:type="MSShapeGroup" fill="#808080" d="M84.9,32.6h169.8v221.5H84.9V32.6z M254.6,31H85.1
						c-1,0-1.8,0.8-1.8,1.8V254c0,1,0.8,1.8,1.8,1.8h169.5c1,0,1.8-0.8,1.8-1.8V32.8C256.4,31.8,255.6,31,254.6,31L254.6,31z"/>
					<path id="Fill-4" sketch:type="MSShapeGroup" fill="#9B9B9B" d="M191.8,97.4h-43.9c-0.5,0-0.9-0.4-0.9-0.8
						c0-0.5,0.4-0.8,0.9-0.8h43.9c0.5,0,0.9,0.4,0.9,0.8C192.7,97.1,192.3,97.4,191.8,97.4z M195.9,107.3H143
						c-0.5,0-0.9-0.4-0.9-0.8c0-0.5,0.4-0.8,0.9-0.8h52.9c0.5,0,0.9,0.4,0.9,0.8C196.8,106.9,196.4,107.3,195.9,107.3z M229.3,140.9
						H111.1c-0.5,0-0.9-0.4-0.9-0.8c0-0.5,0.4-0.8,0.9-0.8h118.2c0.5,0,0.9,0.4,0.9,0.8C230.2,140.5,229.8,140.9,229.3,140.9z
						 M229.3,152.4H111.1c-0.5,0-0.9-0.4-0.9-0.8c0-0.5,0.4-0.8,0.9-0.8h118.2c0.5,0,0.9,0.4,0.9,0.8
						C230.2,152,229.8,152.4,229.3,152.4z M229.3,164.7H111.1c-0.5,0-0.9-0.4-0.9-0.8s0.4-0.8,0.9-0.8h118.2c0.5,0,0.9,0.4,0.9,0.8
						S229.8,164.7,229.3,164.7z M229.3,178.6H111.1c-0.5,0-0.9-0.4-0.9-0.8s0.4-0.8,0.9-0.8h118.2c0.5,0,0.9,0.4,0.9,0.8
						S229.8,178.6,229.3,178.6z M229.3,191.8H111.1c-0.5,0-0.9-0.4-0.9-0.8c0-0.5,0.4-0.8,0.9-0.8h118.2c0.5,0,0.9,0.4,0.9,0.8
						C230.2,191.4,229.8,191.8,229.3,191.8z M229.3,205.7H111.1c-0.5,0-0.9-0.4-0.9-0.8c0-0.5,0.4-0.8,0.9-0.8h118.2
						c0.5,0,0.9,0.4,0.9,0.8C230.2,205.4,229.8,205.7,229.3,205.7z M229.3,218.8H111.1c-0.5,0-0.9-0.4-0.9-0.8
						c0-0.5,0.4-0.8,0.9-0.8h118.2c0.5,0,0.9,0.4,0.9,0.8C230.2,218.5,229.8,218.8,229.3,218.8z"/>
					<g id="Bubbles" transform="translate(0.000000, 47.000000)">
						<g id="Bubble" transform="translate(248.000000, 10.000000)">
						</g>
						<path id="Fill-1_5_" sketch:type="MSShapeGroup" fill="#E8F3FC" stroke="#6288A5" stroke-width="1.6369" d="M270.1,64.7
							c-4.3,0-8.6-0.9-12.4-2.7c-2.3,1.7-5.6,2-8,2c-2.2,0-3.8-0.3-3.9-0.3c-0.3-0.1-0.5-0.3-0.6-0.6c-0.1-0.3,0.1-0.6,0.4-0.7
							c2.4-1.3,3.3-4.2,3.5-6.5c-3.7-4.1-5.7-9.2-5.7-14.4c0-12.8,12-23.2,26.7-23.2c14.7,0,26.7,10.4,26.7,23.2
							C296.8,54.3,284.8,64.7,270.1,64.7"/>
						<path id="Fill-1-Copy-3" sketch:type="MSShapeGroup" fill="#FEEFC6" stroke="#E8B730" stroke-width="1.6369" d="M275.9,193.5
							c-5.4,0-10.7-1.1-15.4-3.3c-2.9,2.1-7,2.5-9.9,2.5c-2.7,0-4.7-0.4-4.8-0.4c-0.4-0.1-0.7-0.4-0.7-0.7c-0.1-0.4,0.1-0.7,0.4-0.9
							c3-1.7,4.1-5.3,4.4-8.1c-4.6-5.1-7.2-11.4-7.2-17.9c0-15.9,14.9-28.9,33.2-28.9c18.3,0,33.2,13,33.2,28.9
							C309.1,180.6,294.2,193.5,275.9,193.5"/>
						<path id="Fill-1-Copy-2" sketch:type="MSShapeGroup" fill="#EEF7D4" stroke="#92AA4A" stroke-width="1.6369" d="M75.9,100.9
							c2.5,1.8,6.1,2.2,8.7,2.2c2.4,0,4.1-0.3,4.2-0.3c0.3-0.1,0.6-0.3,0.6-0.6c0.1-0.3-0.1-0.7-0.4-0.8c-2.6-1.5-3.6-4.6-3.9-7.1
							c4.1-4.4,6.3-10,6.3-15.7c0-14-13.1-25.3-29.1-25.3c-16,0-29.1,11.4-29.1,25.3c0,14,13.1,25.3,29.1,25.3
							C67,103.8,71.7,102.8,75.9,100.9z"/>
						<g id="green-paper" transform="translate(279.000000, 14.000000)" sketch:type="MSShapeGroup">
							<path id="Fill-24" fill="#FFFFFF" d="M-16.8,38.1c-0.5,0-0.9-0.4-0.9-0.9V16.8c0-0.5,0.4-0.9,0.9-0.9h16.1
								c0.5,0,0.9,0.4,0.9,0.9v20.4c0,0.5-0.4,0.9-0.9,0.9H-16.8"/>
							<path id="Fill-25" fill="#6288A5" d="M-16.9,16.7h16.3v21.3h-16.3V16.7z M-0.8,15.1h-16c-1,0-1.8,0.8-1.8,1.8v21
								c0,1,0.8,1.8,1.8,1.8h16c1,0,1.8-0.8,1.8-1.8v-21C1,15.9,0.2,15.1-0.8,15.1L-0.8,15.1z"/>
							<path id="Fill-26" fill="#6288A5" d="M-8.9,21.7h-4.6c-0.5,0-1-0.4-1-0.8c0-0.5,0.4-0.8,1-0.8h4.6c0.5,0,1,0.4,1,0.8
								C-7.9,21.3-8.4,21.7-8.9,21.7z M-3.9,26.6h-9.7c-0.5,0-0.9-0.4-0.9-0.8c0-0.5,0.4-0.8,0.9-0.8h9.7c0.5,0,0.9,0.4,0.9,0.8
								C-3,26.2-3.4,26.6-3.9,26.6z M-3.9,30.7h-9.7c-0.5,0-0.9-0.4-0.9-0.8c0-0.5,0.4-0.8,0.9-0.8h9.7c0.5,0,0.9,0.4,0.9,0.8
								C-3,30.3-3.4,30.7-3.9,30.7z M-3.9,34.8h-9.7c-0.5,0-0.9-0.4-0.9-0.8c0-0.5,0.4-0.8,0.9-0.8h9.7c0.5,0,0.9,0.4,0.9,0.8
								C-3,34.4-3.4,34.8-3.9,34.8z"/>
						</g>
						<g id="oran-paper" transform="translate(23.000000, 57.000000)" sketch:type="MSShapeGroup">
							<path id="Fill-32" fill="#FFFFFF" d="M29.2,33.5V9.1c0-0.5,0.4-0.9,0.9-0.9h18.6c0.5,0,0.9,0.4,0.9,0.9v24.4
								c0,0.5-0.4,0.9-0.9,0.9H30.1C29.6,34.4,29.2,34,29.2,33.5z"/>
							<path id="Fill-33" fill="#92AA4A" d="M30.1,9h18.8v24.6H30.1V9z M48.7,7.4H30.2c-1,0-1.8,0.8-1.8,1.8v24.3
								c0,1,0.8,1.8,1.8,1.8h18.5c1,0,1.8-0.8,1.8-1.8V9.2C50.5,8.2,49.7,7.4,48.7,7.4L48.7,7.4z"/>
							<path id="Fill-34" fill="#92AA4A" d="M38.1,14.8h-4.8c-0.5,0-0.9-0.4-0.9-0.8c0-0.5,0.4-0.8,0.9-0.8h4.8
								c0.5,0,0.9,0.4,0.9,0.8C39,14.4,38.6,14.8,38.1,14.8z M44.7,20.5H33.4c-0.5,0-0.9-0.4-0.9-0.8c0-0.5,0.4-0.8,0.9-0.8h11.3
								c0.5,0,0.9,0.4,0.9,0.8C45.6,20.1,45.2,20.5,44.7,20.5z M44.7,24.6H33.4c-0.5,0-0.9-0.4-0.9-0.8c0-0.5,0.4-0.8,0.9-0.8h11.3
								c0.5,0,0.9,0.4,0.9,0.8C45.6,24.2,45.2,24.6,44.7,24.6z M44.7,28.7H33.4c-0.5,0-0.9-0.4-0.9-0.8c0-0.5,0.4-0.8,0.9-0.8h11.3
								c0.5,0,0.9,0.4,0.9,0.8C45.6,28.3,45.2,28.7,44.7,28.7z"/>
						</g>
						<g id="purp-paper" transform="translate(283.000000, 160.000000)" sketch:type="MSShapeGroup">
							<path id="Fill-40" fill="#FFFFFF" d="M-18.5,18.3V-9.4c0-0.5,0.4-0.9,0.9-0.9H4.3c0.5,0,0.9,0.4,0.9,0.9v27.8
								c0,0.5-0.4,0.9-0.9,0.9h-21.9C-18.1,19.2-18.5,18.8-18.5,18.3z"/>
							<path id="Fill-41" fill="#E8B730" d="M-17.6-9.5h22v27.9h-22V-9.5z M4.2-11.1h-21.7c-1,0-1.8,0.8-1.8,1.8v27.6
								c0,1,0.8,1.8,1.8,1.8H4.2c1,0,1.8-0.8,1.8-1.8V-9.4C6-10.3,5.2-11.1,4.2-11.1L4.2-11.1z M-8.7-3.7h-5.6
								c-0.5,0-0.9-0.4-0.9-0.8c0-0.5,0.4-0.8,0.9-0.8h5.6c0.5,0,0.9,0.4,0.9,0.8C-7.9-4.1-8.2-3.7-8.7-3.7 M-0.6,2.8h-13.7
								c-0.5,0-0.9-0.4-0.9-0.8c0-0.5,0.4-0.8,0.9-0.8h13.7c0.5,0,0.9,0.4,0.9,0.8C0.3,2.5-0.1,2.8-0.6,2.8 M-0.6,7.7h-13.7
								c-0.5,0-0.9-0.4-0.9-0.8c0-0.5,0.4-0.8,0.9-0.8h13.7c0.5,0,0.9,0.4,0.9,0.8C0.3,7.4-0.1,7.7-0.6,7.7 M-0.6,12.7h-13.7
								c-0.5,0-0.9-0.4-0.9-0.8c0-0.5,0.4-0.8,0.9-0.8h13.7c0.5,0,0.9,0.4,0.9,0.8C0.3,12.3-0.1,12.7-0.6,12.7"/>
						</g>
					</g>
					<path id="Imported-Layers_5_" sketch:type="MSShapeGroup" fill="#4A4A4A" d="M179.5,77.8l-8.9-22.2h-6.3l1.1,2.8L158,77.8
						c-0.3,1-1.1,1.1-2,1.3v1.3h7.4v-1.3l0,0l0,0h0c-2-0.2-3.1-0.5-2.3-2.6c0.1-0.2,0.6-1.7,1.4-3.6h9l1.3,3.3
						c0.2,0.5,0.3,1,0.3,1.4c0,1.1-0.9,1.5-2.9,1.6v1.3h11.5v-1.3C180.6,78.9,179.9,78.7,179.5,77.8L179.5,77.8z M163.3,70.5
						c1.3-3.5,2.9-7.6,3.5-9.1l3.6,9.1H163.3L163.3,70.5z"/>
				</g>
			</g>
		</g>
	</g>
</g>
</svg>
