<?xml version="1.0" encoding="utf-8"?>
<!-- Generator: Adobe Illustrator 19.1.0, SVG Export Plug-In . SVG Version: 6.00 Build 0)  -->
<svg version="1.1" id="Layer_1" xmlns="http://www.w3.org/2000/svg" xmlns:xlink="http://www.w3.org/1999/xlink" x="0px" y="0px"
	 width="192px" height="53px" viewBox="-488 181.8 192 53" style="enable-background:new -488 181.8 192 53;" xml:space="preserve">
<style type="text/css">
	.st0{fill:#2D2C2E;}
	.st1{fill:#FEBC11;}
	.st2{fill:#6D6E71;}
</style>
<g>
	<g>
		<path class="st0" d="M-430,192c2.4-0.2,3.3,20.8,4.5,27.1c0.3,1.4-5.2,1.6-5.1,0.4C-430.5,211.4-431.6,192.1-430,192z"/>
	</g>
</g>
<g>
	<g>
		<path class="st0" d="M-473.5,197.6l19.7,5.8l21.3-5.8v12.8c-8.1,5.2-29.8,7.1-41,0C-473.5,210.4-473.5,197.6-473.5,197.6z"/>
	</g>
</g>
<g>
	<g>
		<polygon class="st1" points="-488,191.7 -453.9,181.8 -419.2,191.7 -453.6,201.7 		"/>
	</g>
</g>
<g>
	<path class="st2" d="M-471.8,228.5h-2.5v2h2.2c0.2,0,0.3,0.2,0.3,0.3s-0.2,0.3-0.3,0.3h-2.2v2h2.5c0.2,0,0.3,0.2,0.3,0.3
		s-0.1,0.3-0.3,0.3h-2.8c-0.2,0-0.3-0.1-0.3-0.3v-5.4c0-0.2,0.1-0.3,0.3-0.3h2.9c0.2,0,0.3,0.1,0.3,0.3
		C-471.4,228.4-471.6,228.5-471.8,228.5z"/>
	<path class="st2" d="M-467.2,233.9h-1.3c-0.2,0-0.3-0.1-0.3-0.3v-5.4c0-0.2,0.1-0.3,0.3-0.3h1.2c1.5,0,3.1,0.8,3.1,3
		C-464.1,232.6-465.4,233.9-467.2,233.9z M-467.3,228.5l-0.9,0l0,4.7h1c1.2,0,2.4-0.7,2.4-2.4C-464.8,228.7-466.5,228.5-467.3,228.5
		z"/>
	<path class="st2" d="M-456.5,231.2c0,1.7-1,2.8-2.5,2.8s-2.5-1.1-2.5-2.8v-3c0-0.2,0.1-0.3,0.3-0.3c0.2,0,0.3,0.1,0.3,0.3l0,3
		c0,1.3,0.7,2.1,1.8,2.1c1.1,0,1.8-0.8,1.8-2.1v-3c0-0.2,0.1-0.3,0.3-0.3c0.2,0,0.3,0.1,0.3,0.3L-456.5,231.2z"/>
	<path class="st2" d="M-449.7,233.7c-0.1,0-0.6,0.2-1.3,0.2c-1.8,0-2.9-1.2-2.9-3.1c0-1.9,1.1-3.1,2.9-3.1c0.6,0,1.2,0.2,1.3,0.2
		c0.2,0.1,0.3,0.3,0.2,0.4c-0.1,0.2-0.3,0.3-0.4,0.2c-0.1,0-0.5-0.2-1.1-0.2c-1.4,0-2.2,0.9-2.2,2.4c0,1.5,0.8,2.4,2.2,2.4
		c0.5,0,1-0.2,1.1-0.2c0.2-0.1,0.4,0,0.4,0.2C-449.4,233.5-449.5,233.7-449.7,233.7z"/>
	<path class="st2" d="M-442.5,233.4c0.1,0.2,0,0.4-0.2,0.4c-0.2,0.1-0.4,0-0.4-0.2l-0.5-1.3h-2.6l-0.5,1.3c-0.1,0.2-0.3,0.3-0.4,0.2
		c-0.2-0.1-0.3-0.3-0.2-0.4l2.1-5.4c0-0.1,0.2-0.2,0.3-0.2c0.1,0,0.3,0.1,0.3,0.2L-442.5,233.4z M-444,231.7l-1.1-2.6l-1,2.6H-444z"
		/>
	<path class="st2" d="M-436.9,228.5h-1.7v5c0,0.2-0.2,0.3-0.3,0.3s-0.3-0.2-0.3-0.3v-5h-1.7c-0.2,0-0.3-0.2-0.3-0.3
		c0-0.2,0.1-0.3,0.3-0.3h4.1c0.2,0,0.3,0.1,0.3,0.3C-436.6,228.4-436.7,228.5-436.9,228.5z"/>
	<path class="st2" d="M-433.6,233.6c0,0.2-0.1,0.3-0.3,0.3c-0.2,0-0.3-0.2-0.3-0.3v-5.4c0-0.2,0.1-0.3,0.3-0.3
		c0.2,0,0.3,0.2,0.3,0.3V233.6z"/>
	<path class="st2" d="M-427.9,234c-1.6,0-2.9-1.3-2.9-3.1c0-1.8,1.2-3.1,2.9-3.1c1.7,0,2.9,1.3,2.9,3.1
		C-425.1,232.6-426.3,234-427.9,234z M-427.9,228.4c-1.3,0-2.2,1-2.2,2.4c0,1.4,0.9,2.5,2.2,2.5c1.3,0,2.2-1,2.2-2.5
		C-425.7,229.4-426.6,228.4-427.9,228.4z"/>
	<path class="st2" d="M-417.7,233.6c0,0.1-0.1,0.3-0.2,0.3c-0.1,0-0.3,0-0.4-0.1l-3.3-4.6v4.4c0,0.2-0.2,0.3-0.3,0.3
		c-0.2,0-0.3-0.2-0.3-0.3v-5.4c0-0.1,0.1-0.3,0.2-0.3c0.1,0,0.3,0,0.4,0.1l3.3,4.6v-4.4c0-0.2,0.1-0.3,0.3-0.3
		c0.2,0,0.3,0.1,0.3,0.3L-417.7,233.6L-417.7,233.6z"/>
	<path class="st2" d="M-405.9,233.7c0,0.1-0.2,0.2-0.3,0.2c-0.1,0-0.3-0.1-0.3-0.2l-1.6-4.3l-1.5,4.3c0,0.1-0.2,0.2-0.3,0.2
		s-0.3-0.1-0.3-0.2l-1.6-5.4c0-0.2,0-0.3,0.2-0.4c0.2-0.1,0.3,0,0.4,0.2l1.3,4.5l1.5-4.3c0-0.1,0.2-0.2,0.3-0.2
		c0.1,0,0.3,0.1,0.3,0.2l1.5,4.3l1.3-4.5c0-0.2,0.2-0.3,0.4-0.2c0.2,0,0.3,0.2,0.2,0.4L-405.9,233.7z"/>
	<path class="st2" d="M-397.7,233.4c0.1,0.1,0.1,0.4-0.1,0.5c-0.1,0.1-0.4,0.1-0.5-0.1l-1.5-2.1h-1.2v1.9c0,0.2-0.1,0.3-0.3,0.3
		s-0.3-0.1-0.3-0.3v-5.4c0-0.2,0.1-0.3,0.3-0.3h1.7c0.8,0,1.8,0.7,1.8,1.9c0,0.8-0.5,1.5-1.2,1.8L-397.7,233.4z M-399.7,228.5
		l-1.3,0v2.5h1.3c0.7,0,1.1-0.6,1.1-1.2C-398.6,228.9-399.3,228.5-399.7,228.5z"/>
	<path class="st2" d="M-394.3,233.6c0,0.2-0.2,0.3-0.3,0.3c-0.2,0-0.3-0.2-0.3-0.3v-5.4c0-0.2,0.1-0.3,0.3-0.3s0.3,0.2,0.3,0.3
		V233.6z"/>
	<path class="st2" d="M-387.6,228.5h-1.7v5c0,0.2-0.1,0.3-0.3,0.3s-0.3-0.2-0.3-0.3v-5h-1.7c-0.2,0-0.3-0.2-0.3-0.3
		c0-0.2,0.2-0.3,0.3-0.3h4.1c0.2,0,0.3,0.1,0.3,0.3C-387.2,228.4-387.4,228.5-387.6,228.5z"/>
	<path class="st2" d="M-381.7,228.5h-2.5v2h2.2c0.2,0,0.3,0.2,0.3,0.3s-0.2,0.3-0.3,0.3h-2.2v2h2.5c0.2,0,0.3,0.2,0.3,0.3
		s-0.1,0.3-0.3,0.3h-2.8c-0.2,0-0.3-0.1-0.3-0.3v-5.4c0-0.2,0.1-0.3,0.3-0.3h2.9c0.2,0,0.3,0.1,0.3,0.3
		C-381.3,228.4-381.5,228.5-381.7,228.5z"/>
	<path class="st2" d="M-374.8,233.4c0.1,0.1,0.1,0.4-0.1,0.5c-0.1,0.1-0.4,0.1-0.5-0.1l-1.5-2.1h-1.2v1.9c0,0.2-0.1,0.3-0.3,0.3
		c-0.2,0-0.3-0.1-0.3-0.3v-5.4c0-0.2,0.1-0.3,0.3-0.3h1.7c0.8,0,1.8,0.7,1.8,1.9c0,0.8-0.5,1.5-1.2,1.8L-374.8,233.4z M-376.7,228.5
		l-1.3,0v2.5h1.3c0.7,0,1.1-0.6,1.1-1.2C-375.6,228.9-376.4,228.5-376.7,228.5z"/>
	<path class="st2" d="M-370.6,234c-0.4,0-1.1-0.1-1.5-0.2c-0.2-0.1-0.3-0.2-0.2-0.4c0.1-0.2,0.3-0.3,0.4-0.2
		c0.3,0.1,0.9,0.2,1.2,0.2c0.4,0,1.2-0.1,1.2-1c0-0.5-0.2-0.7-0.7-0.9l-1.2-0.5c-0.6-0.2-1.1-0.5-1.1-1.5c0-1,0.7-1.7,1.8-1.7
		c0.4,0,1.1,0.1,1.5,0.2c0.2,0.1,0.3,0.2,0.2,0.4c-0.1,0.2-0.3,0.3-0.4,0.2c-0.3-0.1-0.9-0.2-1.2-0.2c-0.4,0-1.2,0.1-1.2,1
		c0,0.5,0.2,0.7,0.7,0.9l1.2,0.5c0.6,0.2,1.1,0.5,1.1,1.5C-368.8,233.3-369.5,234-370.6,234z"/>
	<path class="st2" d="M-358.3,233.4c0.1,0.2,0,0.4-0.2,0.4c-0.2,0.1-0.4,0-0.4-0.2l-0.6-1.3h-2.6l-0.5,1.3c-0.1,0.2-0.3,0.3-0.4,0.2
		c-0.2-0.1-0.3-0.3-0.2-0.4l2.1-5.4c0-0.1,0.2-0.2,0.3-0.2c0.1,0,0.3,0.1,0.3,0.2L-358.3,233.4z M-359.7,231.7l-1.1-2.6l-1,2.6
		H-359.7z"/>
	<path class="st2" d="M-354.4,234c-0.4,0-1.1-0.1-1.5-0.2c-0.2-0.1-0.3-0.2-0.2-0.4c0.1-0.2,0.3-0.3,0.4-0.2
		c0.3,0.1,0.9,0.2,1.2,0.2c0.4,0,1.2-0.1,1.2-1c0-0.5-0.2-0.7-0.7-0.9l-1.2-0.5c-0.6-0.2-1.1-0.5-1.1-1.5c0-1,0.7-1.7,1.8-1.7
		c0.4,0,1.1,0.1,1.5,0.2c0.2,0.1,0.3,0.2,0.2,0.4c-0.1,0.2-0.3,0.3-0.4,0.2c-0.3-0.1-0.9-0.2-1.2-0.2c-0.4,0-1.2,0.1-1.2,1
		c0,0.5,0.2,0.7,0.7,0.9l1.2,0.5c0.6,0.2,1.1,0.5,1.1,1.5C-352.6,233.3-353.3,234-354.4,234z"/>
	<path class="st2" d="M-348.4,234c-0.4,0-1.1-0.1-1.5-0.2c-0.2-0.1-0.3-0.2-0.2-0.4c0.1-0.2,0.3-0.3,0.4-0.2
		c0.3,0.1,0.9,0.2,1.2,0.2c0.4,0,1.2-0.1,1.2-1c0-0.5-0.2-0.7-0.7-0.9l-1.2-0.5c-0.6-0.2-1.1-0.5-1.1-1.5c0-1,0.7-1.7,1.8-1.7
		c0.4,0,1.1,0.1,1.5,0.2c0.2,0.1,0.3,0.2,0.2,0.4c-0.1,0.2-0.3,0.3-0.4,0.2c-0.3-0.1-0.9-0.2-1.2-0.2c-0.4,0-1.2,0.1-1.2,1
		c0,0.5,0.2,0.7,0.7,0.9l1.2,0.5c0.6,0.2,1.1,0.5,1.1,1.5C-346.6,233.3-347.3,234-348.4,234z"/>
	<path class="st2" d="M-341.3,234c-1.6,0-2.9-1.3-2.9-3.1c0-1.8,1.2-3.1,2.9-3.1s2.9,1.3,2.9,3.1C-338.4,232.6-339.7,234-341.3,234z
		 M-341.3,228.4c-1.3,0-2.2,1-2.2,2.4c0,1.4,0.9,2.5,2.2,2.5s2.2-1,2.2-2.5C-339.1,229.4-340,228.4-341.3,228.4z"/>
	<path class="st2" d="M-331.9,233.7c-0.1,0-0.6,0.2-1.3,0.2c-1.8,0-2.9-1.2-2.9-3.1c0-1.9,1.1-3.1,2.9-3.1c0.6,0,1.2,0.2,1.3,0.2
		c0.2,0.1,0.3,0.3,0.2,0.4c-0.1,0.2-0.3,0.3-0.4,0.2c-0.1,0-0.5-0.2-1.1-0.2c-1.4,0-2.2,0.9-2.2,2.4c0,1.5,0.8,2.4,2.2,2.4
		c0.5,0,1-0.2,1.1-0.2c0.2-0.1,0.4,0,0.4,0.2C-331.6,233.5-331.7,233.7-331.9,233.7z"/>
	<path class="st2" d="M-328.4,233.6c0,0.2-0.1,0.3-0.3,0.3c-0.2,0-0.3-0.2-0.3-0.3v-5.4c0-0.2,0.1-0.3,0.3-0.3s0.3,0.2,0.3,0.3
		V233.6z"/>
	<path class="st2" d="M-321,233.4c0.1,0.2,0,0.4-0.2,0.4c-0.2,0.1-0.4,0-0.4-0.2l-0.5-1.3h-2.6l-0.5,1.3c-0.1,0.2-0.3,0.3-0.4,0.2
		c-0.2-0.1-0.3-0.3-0.2-0.4l2.1-5.4c0-0.1,0.2-0.2,0.3-0.2c0.1,0,0.3,0.1,0.3,0.2L-321,233.4z M-322.4,231.7l-1.1-2.6l-1,2.6H-322.4
		z"/>
	<path class="st2" d="M-315.3,228.5h-1.7v5c0,0.2-0.1,0.3-0.3,0.3s-0.3-0.2-0.3-0.3v-5h-1.7c-0.2,0-0.3-0.2-0.3-0.3
		c0-0.2,0.1-0.3,0.3-0.3h4.1c0.2,0,0.3,0.1,0.3,0.3C-315,228.4-315.2,228.5-315.3,228.5z"/>
	<path class="st2" d="M-312,233.6c0,0.2-0.1,0.3-0.3,0.3c-0.2,0-0.3-0.2-0.3-0.3v-5.4c0-0.2,0.1-0.3,0.3-0.3s0.3,0.2,0.3,0.3V233.6z
		"/>
	<path class="st2" d="M-306.4,234c-1.6,0-2.9-1.3-2.9-3.1c0-1.8,1.2-3.1,2.9-3.1c1.7,0,2.9,1.3,2.9,3.1
		C-303.5,232.6-304.7,234-306.4,234z M-306.4,228.4c-1.3,0-2.2,1-2.2,2.4c0,1.4,0.9,2.5,2.2,2.5s2.2-1,2.2-2.5
		C-304.2,229.4-305.1,228.4-306.4,228.4z"/>
	<path class="st2" d="M-296.2,233.6c0,0.1-0.1,0.3-0.2,0.3c-0.1,0-0.3,0-0.4-0.1l-3.3-4.6v4.4c0,0.2-0.1,0.3-0.3,0.3
		s-0.3-0.2-0.3-0.3v-5.4c0-0.1,0.1-0.3,0.2-0.3c0.1,0,0.3,0,0.4,0.1l3.3,4.6v-4.4c0-0.2,0.1-0.3,0.3-0.3c0.2,0,0.3,0.1,0.3,0.3
		L-296.2,233.6L-296.2,233.6z"/>
</g>
<g>
	<g>
		<g>
			<path class="st0" d="M-463,183.3c0,0,0.1,0,0.1,0.1c0,0,0,0,0,0c0-0.3,0.2-0.5,0.6-0.6c0.7-0.2,2,0.1,3,0.7
				c0.2,0.1,0.3,0.2,0.5,0.3c0,0,0,0,0,0c0.1,0.1,0.3,0.2,0.4,0.3c0.1,0.1,0.2,0.2,0.2,0.3c-0.4,0.2-0.5,0.4-0.4,0.7
				c0,0.1,0.1,0.3,0.3,0.4c0,0,0,0,0,0c0.2,0.1,0.4,0.2,0.6,0.3c0.6,0.2,1.3,0.3,1.8,0.1c0.3-0.1,0.4-0.2,0.6-0.3
				c0.1-0.1,0.2-0.3,0.1-0.5c0-0.1-0.1-0.1-0.1-0.2c0-0.1-0.1-0.1-0.2-0.2c0,0,0,0,0,0c-0.2-0.1-0.4-0.2-0.6-0.3
				c-0.2-0.1-0.4-0.1-0.6-0.1c-0.1-0.2-0.3-0.3-0.4-0.5c-0.1-0.1-0.2-0.2-0.4-0.3c0,0,0,0,0,0c-0.1-0.1-0.2-0.2-0.3-0.2
				c-0.1,0-0.1-0.1-0.2-0.1c-0.6-0.4-1.2-0.6-1.9-0.9c-1.1-0.3-2.3-0.4-3.3-0.2c-0.6,0.2-0.9,0.4-1.1,0.8c0,0,0,0,0,0.1
				c0.1,0,0.1,0,0.2,0.1C-463.7,183.1-463.3,183.2-463,183.3z"/>
		</g>
	</g>
	<g>
		<g>
			<path class="st0" d="M-467.4,184.6c0,0,0.1,0,0.1,0.1c0,0,0,0,0,0c0-0.3,0.2-0.5,0.6-0.6c0.7-0.2,2,0.1,3,0.7
				c0.2,0.1,0.3,0.2,0.5,0.3c0,0,0,0,0,0c0.1,0.1,0.3,0.2,0.4,0.3c0.1,0.1,0.2,0.2,0.2,0.3c-0.4,0.2-0.5,0.4-0.4,0.7
				c0,0.1,0.1,0.3,0.3,0.4c0,0,0,0,0,0c0.2,0.1,0.4,0.2,0.6,0.3c0.6,0.2,1.3,0.2,1.8,0.1c0.3-0.1,0.4-0.2,0.6-0.3
				c0.1-0.1,0.2-0.3,0.1-0.5c0-0.1-0.1-0.1-0.1-0.2c0-0.1-0.1-0.1-0.2-0.2c0,0,0,0,0,0c-0.2-0.1-0.4-0.2-0.6-0.3
				c-0.2-0.1-0.4-0.1-0.6-0.1c-0.1-0.2-0.3-0.3-0.4-0.5c-0.1-0.1-0.2-0.2-0.4-0.3c0,0,0,0,0,0c-0.1-0.1-0.2-0.2-0.3-0.2
				c-0.1,0-0.1-0.1-0.2-0.1c-0.6-0.4-1.2-0.6-1.9-0.9c-1.1-0.3-2.3-0.4-3.3-0.2c-0.6,0.2-0.9,0.4-1.1,0.8c0,0,0,0,0,0.1
				c0.1,0,0.1,0,0.2,0.1C-468.1,184.4-467.8,184.5-467.4,184.6z"/>
		</g>
	</g>
	<g>
		<g>
			<path class="st0" d="M-480.1,187.9c0.7-0.2,2,0.1,3,0.7c0.2,0.1,0.3,0.2,0.5,0.3c0,0,0,0,0,0c0.1,0.1,0.3,0.2,0.4,0.3
				c0.1,0.1,0.2,0.2,0.2,0.3c-0.4,0.2-0.5,0.4-0.4,0.7c0,0.1,0.1,0.3,0.3,0.4c0,0,0,0,0,0c0.2,0.1,0.4,0.2,0.6,0.3
				c0.6,0.2,1.3,0.2,1.8,0.1c0.3-0.1,0.4-0.2,0.6-0.3c0.1-0.1,0.2-0.3,0.1-0.5c0-0.1-0.1-0.1-0.1-0.2c0-0.1-0.1-0.1-0.2-0.2
				c0,0,0,0,0,0c-0.2-0.1-0.4-0.2-0.6-0.3c-0.2-0.1-0.4-0.1-0.6-0.1c-0.1-0.2-0.3-0.3-0.4-0.5c-0.1-0.1-0.2-0.2-0.4-0.3c0,0,0,0,0,0
				c-0.1-0.1-0.2-0.2-0.3-0.2c-0.1,0-0.1-0.1-0.2-0.1c-0.6-0.4-1.2-0.6-1.9-0.8c-1.1-0.3-2.3-0.4-3.3-0.2c-0.6,0.2-0.9,0.4-1.1,0.8
				c-0.3,0.5-0.1,1.2,0.6,1.9l0.4-1.1C-481,188.1-480.1,187.9-480.1,187.9z"/>
		</g>
	</g>
	<g>
		<g>
			<path class="st0" d="M-471.9,185.9c0,0,0.1,0,0.1,0.1c0,0,0,0,0,0c0-0.3,0.2-0.5,0.6-0.6c0.7-0.2,2,0.1,3,0.7
				c0.2,0.1,0.3,0.2,0.5,0.3c0,0,0,0,0,0c0.1,0.1,0.3,0.2,0.4,0.3c0.1,0.1,0.2,0.2,0.2,0.3c-0.4,0.2-0.5,0.4-0.4,0.7
				c0,0.1,0.1,0.3,0.3,0.4c0,0,0,0,0,0c0.2,0.1,0.4,0.2,0.6,0.3c0.6,0.2,1.3,0.2,1.8,0.1c0.3-0.1,0.4-0.2,0.6-0.3
				c0.1-0.1,0.2-0.3,0.1-0.5c0-0.1-0.1-0.1-0.1-0.2c0-0.1-0.1-0.1-0.2-0.2c0,0,0,0,0,0c-0.2-0.1-0.4-0.2-0.6-0.3
				c-0.2-0.1-0.4-0.1-0.6-0.1c-0.1-0.2-0.3-0.3-0.4-0.5c-0.1-0.1-0.2-0.2-0.4-0.3c0,0,0,0,0,0c-0.1-0.1-0.2-0.2-0.3-0.2
				c-0.1,0-0.1-0.1-0.2-0.1c-0.6-0.4-1.2-0.6-1.9-0.9c-1.1-0.3-2.3-0.4-3.3-0.2c-0.6,0.2-0.9,0.4-1.1,0.8c0,0,0,0,0,0.1
				c0.1,0,0.1,0,0.2,0.1C-472.6,185.6-472.2,185.8-471.9,185.9z"/>
		</g>
	</g>
	<g>
		<g>
			<path class="st0" d="M-476.4,187.2c0,0,0.1,0,0.1,0.1c0,0,0,0,0,0c0-0.3,0.2-0.5,0.6-0.6c0.7-0.2,2,0.1,3,0.7
				c0.2,0.1,0.3,0.2,0.5,0.3c0,0,0,0,0,0c0.1,0.1,0.3,0.2,0.4,0.3c0.1,0.1,0.2,0.2,0.2,0.3c-0.4,0.2-0.5,0.4-0.4,0.7
				c0,0.1,0.1,0.3,0.3,0.4c0,0,0,0,0,0c0.2,0.1,0.4,0.2,0.6,0.3c0.6,0.2,1.3,0.2,1.8,0.1c0.3-0.1,0.5-0.2,0.6-0.3
				c0.1-0.1,0.2-0.3,0.1-0.5c0-0.1-0.1-0.1-0.1-0.2c0-0.1-0.1-0.1-0.2-0.2c0,0,0,0,0,0c-0.2-0.1-0.4-0.2-0.6-0.3
				c-0.2-0.1-0.4-0.1-0.6-0.1c-0.1-0.2-0.3-0.3-0.4-0.5c-0.1-0.1-0.2-0.2-0.4-0.3c0,0,0,0,0,0c-0.1-0.1-0.2-0.2-0.3-0.2
				c-0.1,0-0.1-0.1-0.2-0.1c-0.6-0.4-1.2-0.6-1.9-0.8c-1.1-0.4-2.3-0.4-3.3-0.2c-0.6,0.2-0.9,0.4-1.1,0.8c0,0,0,0,0,0.1
				c0.1,0,0.1,0,0.2,0.1C-477.1,186.9-476.7,187-476.4,187.2z"/>
		</g>
	</g>
</g>
<g>
	<path class="st0" d="M-397,219c-10.2,0-15-5.8-15-16.5c0-10.5,4.7-18,15-18c9.7,0,12.6,7.3,12.6,14.3c0,2-1.3,3.2-3.1,3.2h-17.5
		c0,7,2.3,11.5,9.2,11.5c2.5,0,4.8-0.6,7.1-1.8c0.3-0.1,0.6-0.2,0.9-0.2c1.1,0,1.9,1,1.9,2.1C-386,215.7-390.8,219-397,219z
		 M-391.5,197.2c0-5.1-2-8.3-6.3-8.3c-5,0-6.8,3.8-7.2,9.1L-391.5,197.2z"/>
</g>
<g>
	<path class="st0" d="M-361.4,215.6c-0.6,2-2.3,3.4-4.3,3.4c-2,0-3.8-1.3-4.4-3.4l-7.7-25.7l-1.9-0.4c-1.1-0.2-1.9-1.2-1.9-2.3
		c0-1.1,0.9-2,2-2h10.2c1.1,0,1.9,0.9,1.9,1.9c0,1.1-0.8,2.1-1.9,2.4l-1.7,0.4l5.6,22.5l6.7-23.8c0.6-2,2.3-3.3,4.4-3.3
		c2,0,3.8,1.4,4.3,3.3l6.3,23.9l6.3-22.6l-1.4-0.3c-1.1-0.3-1.9-1.3-1.9-2.4c0-1.1,0.9-1.9,2-1.9h9.3c1.1,0,1.9,0.9,1.9,1.9
		c0,1.1-0.8,2.1-1.9,2.4l-1.9,0.4l-8.5,25.8c-0.7,2-2.4,3.3-4.4,3.3s-3.7-1.3-4.3-3.4l-6.3-22.8L-361.4,215.6z"/>
</g>
<g>
	<path class="st0" d="M-305.2,219c-1.3,0.1-2.4-1.1-2.4-2.4v-1.5c-2.1,2.3-4.6,3.9-8.7,3.9c-6.3,0-10.4-3.8-10.4-9.9
		c0-8.7,6.5-10.7,16.1-10.7h2.8v-2.8c0-4.7-1.4-6.9-5.7-6.9c-1.3,0-2.4,0.3-3.1,0.7l-0.6,1.9c-0.5,1.6-1.9,2.7-3.7,2.7
		c-1.5,0-2.7-1.2-2.7-2.6v-0.5c0-5.3,6.9-6.4,11.8-6.4c9.5,0,10.7,4.7,10.7,11.7v17.7l1.9,0.3c1.1,0.2,1.8,1.1,1.8,2.2
		c0,1-0.8,2-1.9,2.1L-305.2,219z M-314,213.7c1.9,0,4-0.5,6.2-1.7v-9.7l-4.2,0.2c-4.5,0.2-7.8,1.8-7.8,5.9
		C-319.7,212.1-317.3,213.7-314,213.7z"/>
</g>
</svg>
