<svg width="200" height="50" viewBox="0 0 112 20" xmlns="http://www.w3.org/2000/svg">
    <g fill="none" fill-rule="evenodd">
        <path d="M3 17.5h6v-7H3v7zM0 20h12V8H0v12z" fill="#F98200"></path>
        <path d="M3 17h14V3H3v14zm-3 3h20V0H0v20z" fill="#82DCFF"></path>
        <path fill="#009FE4" d="M0 8h3v12H0zM3 17h9v3H3z"></path>
        <path d="M27 1.537h3.424v3.937l-.18 2.147a6.778 6.778 0 0 1 1.621-1.074c.505-.36 1.19-.527 1.983-.536 1.265.01 2.181.42 2.703 1.252.616.81.9 1.947.9 3.4v7.158h-3.423v-6.8c-.014-.75-.127-1.323-.36-1.61-.219-.332-.581-.487-1.082-.537-.434.05-.808.147-1.081.358-.35.176-.694.45-1.081.894v7.695H27V1.537zm11.925 10.558c0-1.043.156-1.892.54-2.684a3.83 3.83 0 0 1 1.262-1.79c.45-.55 1.057-.938 1.802-1.253a6.442 6.442 0 0 1 2.162-.357c.658 0 1.367.134 1.982.357.748.315 1.352.703 1.802 1.253a3.83 3.83 0 0 1 1.262 1.79c.384.792.54 1.641.54 2.684 0 .863-.156 1.713-.54 2.505a3.83 3.83 0 0 1-1.262 1.79c-.45.55-1.054.938-1.802 1.252a5.987 5.987 0 0 1-1.982.358 6.442 6.442 0 0 1-2.162-.358c-.745-.314-1.352-.703-1.802-1.253a3.83 3.83 0 0 1-1.262-1.789c-.384-.792-.54-1.642-.54-2.505zm3.604-.18c0 .99.178 1.775.54 2.327.35.605.893.895 1.622.895.713 0 1.252-.29 1.622-.895.358-.552.54-1.336.54-2.326s-.182-1.774-.54-2.327c-.37-.605-.909-.894-1.622-.894-.729 0-1.271.29-1.622.894-.362.553-.54 1.337-.54 2.327zm9.01.18c0-1.043.156-1.892.54-2.684a3.83 3.83 0 0 1 1.262-1.79c.45-.55 1.057-.938 1.802-1.253a6.442 6.442 0 0 1 2.162-.357c.658 0 1.367.134 1.982.357.748.315 1.352.703 1.802 1.253a3.83 3.83 0 0 1 1.262 1.79c.383.792.54 1.641.54 2.684 0 .863-.157 1.713-.54 2.505a3.83 3.83 0 0 1-1.262 1.79c-.45.55-1.054.938-1.802 1.252a5.987 5.987 0 0 1-1.982.358 6.442 6.442 0 0 1-2.162-.358c-.745-.314-1.352-.703-1.802-1.253a3.83 3.83 0 0 1-1.262-1.789c-.384-.792-.54-1.642-.54-2.505zm3.604-.18c0 .99.178 1.775.54 2.327.35.605.893.895 1.622.895.713 0 1.251-.29 1.622-.895.358-.552.54-1.336.54-2.326s-.182-1.774-.54-2.327c-.37-.605-.91-.894-1.622-.894-.729 0-1.271.29-1.622.894-.362.553-.54 1.337-.54 2.327zm9.01 0c0-.857.136-1.696.36-2.504.323-.67.682-1.297 1.081-1.79a5.649 5.649 0 0 1 1.622-1.253 4.271 4.271 0 0 1 1.802-.357c.619-.018 1.158.09 1.622.357.38.164.794.456 1.261.895l-.18-1.79V1.538h3.424v16.105H72.26l-.18-1.074c-.483.424-.96.759-1.441 1.074-.613.223-1.167.358-1.802.358a4.67 4.67 0 0 1-1.802-.358 5.066 5.066 0 0 1-1.622-1.253 6.27 6.27 0 0 1-.901-1.789c-.247-.825-.36-1.664-.36-2.684zm3.603 0c0 1.09.182 1.918.541 2.506.367.455.881.716 1.622.716.295 0 .631-.077.9-.18.334-.204.624-.472.902-.894V9.411c-.31-.256-.626-.448-.901-.537a3.195 3.195 0 0 0-1.081-.18c-.46 0-.94.258-1.442.717-.332.568-.54 1.37-.54 2.505zM77.848 1.538h3.423v12.705c-.001.418.065.664.18.716.148.225.284.294.361.358h.18c.135-.064.209-.08.36-.18l.36 2.506c-.185.158-.422.223-.72.358-.276-.027-.614 0-1.081 0-.51 0-1.007-.092-1.442-.358a1.531 1.531 0 0 1-.9-.716c-.275-.308-.45-.708-.541-1.252-.126-.395-.18-.922-.18-1.432V1.537zm8.109 3.042c-.576 0-1.05-.168-1.442-.537-.354-.301-.54-.734-.54-1.253 0-.541.186-.97.54-1.252.392-.373.866-.537 1.442-.537.59 0 1.068.164 1.441.537.358.282.54.71.54 1.252 0 .519-.182.952-.54 1.253-.373.37-.85.537-1.441.537zm-1.802 1.61h3.423v11.453h-3.423V6.19zm5.469.18h2.883l.18 1.431a13.71 13.71 0 0 1 1.622-1.253 4.432 4.432 0 0 1 2.162-.536c1.266 0 2.182.41 2.703 1.252.617.801.901 1.94.901 3.4v7.158h-3.424v-6.8c-.013-.756-.126-1.33-.36-1.61-.218-.34-.58-.494-1.081-.537-.435.043-.809.14-1.081.358-.351.169-.694.444-1.081.715v7.874h-3.424V6.368zm11.924 5.726c0-1.012.157-1.846.541-2.506a5.31 5.31 0 0 1 1.081-1.968 9.065 9.065 0 0 1 1.802-1.253c.687-.22 1.368-.357 1.982-.357.92 0 1.644.138 2.343.357.538.334 1.055.719 1.442 1.253.443.45.752 1.03.9 1.61.26.757.361 1.483.361 2.327 0 .247-.016.528 0 .716-.078.32-.11.515-.18.715h-6.848c.068.815.417 1.449.901 1.79.596.443 1.257.639 1.982.716.888-.077 1.726-.331 2.523-.895l1.262 2.147c-.658.361-1.32.677-1.983.895-.792.243-1.509.358-2.162.358a7.507 7.507 0 0 1-2.343-.358 6.662 6.662 0 0 1-1.982-1.253c-.463-.483-.878-1.11-1.261-1.789-.212-.796-.36-1.642-.36-2.505zm7.569-1.253c0-.687-.147-1.247-.36-1.61-.373-.5-.867-.716-1.622-.716-.48 0-.955.188-1.442.537-.331.402-.597.99-.72 1.79h4.144z" fill="#414141"></path>
    </g>
</svg>
